<?xml version="1.0" encoding="UTF-8"?>
<svg id="_лой_1" data-name=" лой 1" xmlns="http://www.w3.org/2000/svg" viewBox="0 0 90 39">
  <defs>
    <style>
      .cls-1 {
        fill: #76913a;
      }

      .cls-2 {
        fill: #97c459;
      }

      .cls-3 {
        fill-rule: evenodd;
      }

      .cls-3, .cls-4 {
        fill: #3c3c3b;
      }
    </style>
  </defs>
  <g>
    <path class="cls-3" d="M70.67914,29.12261l3.38209-.04225-2.87846-15.32699c-.22242-1.18447-1.43392-1.85564-2.63898-1.85564h-.72758c-1.20494,0-2.38118,.67864-2.63899,1.85564l-3.36669,15.36923h3.55116l2.37739-12.99051c.06899-.37696,.82973-.32882,.88186,0l2.0582,12.99051h0Z"/>
    <path class="cls-4" d="M59.64393,11.78441V29.12261h-3.43064v-7.22218c0-.14252-.20539-.18572-.24633-.06004l-1.34914,4.1404-2.26155,.01055-1.54934-4.11566c-.06223-.16537-.25067-.14899-.25067,.04946v7.19747h-3.35084V11.78441h2.38105c.56912,.18451,.9588,.4324,1.20063,1.1237l2.43825,7.21178c.07524,.27401,.36818,.28281,.45542,.00262,.34702-1.11505,1.9862-6.34134,2.30066-7.11955,.30969-.61736,.61937-1.00238,1.30913-1.21855h2.35337Z"/>
    <path class="cls-3" d="M82.63122,29.16954h-2.20895c-2.66771,0-4.83749-2.16995-4.83749-4.83702v-7.68631c0-2.66707,2.16977-4.83689,4.83749-4.83689h5.37891v3.33286h-5.37891c-.83004,0-1.50495,.67456-1.50495,1.50403v7.68631c0,.82945,.67491,1.50416,1.50495,1.50416h2.20895c.82916,0,1.50518-.67471,1.50518-1.50416v-.70297l-.0043-.52285h-1.55145v-2.82942l4.90085,.00095-.01384,4.05428c0,2.66707-2.16982,4.83702-4.83644,4.83702h0Z"/>
    <path class="cls-2" d="M27.29999,7.04999v2.01001h-1.58997l-.72003-.01001h-1.37v-.41998l-.01001-.85999v-.57001c0-.27002,.02002-.58002,.02002-.89001-.01001-.40002-.04999-.78998-.22998-1.09998l-.03003-.03003c-.03998-.08997-.10999-.16998-.19-.23999-.01001-.01001-.02002-.02002-.03998-.02002-.12-.08997-.27002-.13995-.44-.17999-.16998-.02997-.35999-.04999-.54999-.04999-.07001,0-.14001,.01001-.21002,.01001-.15997,.01001-.32001,.03998-.46002,.07001-.17999,.04999-.33997,.12-.46997,.19995l-.04004,.04004h-.00995c-.08002,.06-.14001,.14001-.17999,.20996-.03003,.05005-.05005,.10004-.08002,.15002-.02002,.04999-.03003,.09998-.04999,.15002-.03003,.12-.06,.26001-.08002,.38995-.07001,.41003-.13,.83002-.47998,1.22003-.08002,.08997-.16003,.16998-.25,.22998-.05005,.03003-.09003,.06-.13,.09003-.42999,.26001-.94,.29999-1.5,.29999-.12,0-.23004,0-.35004-.01001h-.21997c-.16003-.01001-.33002-.01001-.53003-.01001h-.95001c-.25995,0-.54999,0-.85999,.01001h-2.63c-.16998-.01001-.32996-.01001-.47998-.01001h-.10999c-.13,0-.23999-.01001-.36005-.01001h-.20996c-.44-.01996-.76001-.03998-.85004-.06995-.46997-.14001-.75995-.38-.94995-.65002-.08002-.12-.14001-.23999-.19-.37-.01001-.03003-.02002-.06-.03003-.09998-.08002-.24005-.12-.48004-.14996-.70001,0-.04004-.01001-.07001-.02002-.11005-.01001-.12-.03003-.21997-.04999-.27997-.14001-.33002-.36005-.53003-.66003-.63-.25-.09003-.54999-.13-.90997-.12-.12,.01001-.23999,.02002-.37,.02997-.04999,0-.09003,.01001-.13,.02002-.19,.03003-.34003,.09003-.47003,.17999-.06,.04004-.10999,.09003-.15997,.14001-.02002,.02002-.03003,.03998-.04999,.06-.20001,.27002-.28003,.65002-.28003,1.09003V31.83002c0,.07001-.01001,.23999-.01001,.40997v.19c0,.26001,0,.5,.03003,.72003,.04999,.38995,.19,.69995,.53998,.90997,.31,.17999,.58002,.17999,.98004,.16998h14.66998c.27997-.08997,.46997-.16998,.62-.26001,.09998-.06,.17999-.12,.23999-.17999,.19-.19995,.19-.44995,.31-.88995v-3.13c.04999,.13995,.09998,.27997,.16003,.39996,.08997,.20001,.18994,.38,.31,.54004,.10999,.15997,.23999,.29999,.37,.42999,.37,.34998,.78998,.59998,1.16998,.77997,.01001,.01001,.02997,.02002,.04999,.03003l.27002,.12c.33997,.14001,.63,.21997,.76001,.27002,.14996,.06,.28998,.12994,.38,.15997,.02997,.02002,.06,.03003,.07996,.04999,.02002,.01001,.03003,.02002,.04004,.03003,.06,.06,.08997,.13995,.08997,.21997,0,.46002-.01996,.89001-.06,1.29004l-.02997,.20996c-.05005,.38-.13,.73004-.25,1.06,0,.01001-.01001,.03003-.02002,.04999-.09003,.24005-.20001,.46002-.33002,.68005-.01001,.00995-.01996,.01996-.02997,.03998l-.06,.08997c-.06,.08002-.12,.16003-.19,.24005-.27002,.32001-.61005,.59998-1.02002,.82001l-.12,.06c-.15997,.08997-.34003,.15997-.53003,.22998-.13995,.04999-.27997,.08997-.44,.14001-.00995,0-.02997,.00995-.04999,.00995-.07001,.02002-.13995,.03003-.20996,.05005-.21002,.04999-.42999,.07996-.66003,.10999-.01001,0-.01996,.01001-.02997,.01001-.16003,0-.33002,.01001-.48999,.01001-.19,.00995-.38,.00995-.58002,.00995-.21002,0-.41998,.01001-.63,.01001h-1.78998c-.22003-.01001-.44-.01001-.66003-.01001h-.06c-.40997,0-.83002-.00995-1.35999-.00995H8.23999c-.14996,0-.31,.00995-.46997,.00995-.28003,.01001-.57001,.03003-.86005,.03003-.28998,0-.57996,0-.85999-.03998-.08997-.01001-.16998-.03003-.26001-.05005-.14996-.02997-.29999-.06995-.44-.12l-.04999-.01996c-.17999-.07001-.34998-.17004-.51996-.30005-.01001,0-.03003-.00995-.04004-.01996-.25-.16003-.48999-.35999-.70996-.58002l-.15002-.15002c-.03998-.03998-.08002-.08997-.10999-.12994-.21002-.23004-.40002-.48004-.56-.73004-.26001-.41998-.46002-.85999-.56-1.27997-.05005-.20001-.07001-.39001-.07001-.58002V5.03003c0-.05005,.01001-.10004,.02997-.14001,.01001-.01001,.01001-.04004,.02002-.08002v-.02002c.02002-.03998,.02997-.09998,.03998-.14996,.06-.23004,.13-.54004,.27002-.89001,.04999-.13,.12-.28003,.19-.41998,.17999-.35004,.39001-.58002,.40997-.61005,.11005-.12994,.22003-.25995,.36005-.38995,.20996-.22003,.42999-.39001,.63995-.53003,.20001-.13,.39001-.23999,.58002-.33002,.42999-.18994,.81-.26996,1.09003-.31995,.12-.03003,.20996-.05005,.26996-.07001,.01001,0,.02002-.01001,.03003-.01001,.02997-.01001,.07001-.02002,.10999-.02002H23.32001c.03998,0,.08002,.01001,.12,.03003,.02002,.01001,.04999,.01996,.09003,.01996,.04999,.02002,.12,.03003,.18994,.05005,.11005,.01996,.23004,.04999,.36005,.07996,.16998,.04004,.37,.10004,.57996,.19,.22003,.08002,.46002,.20001,.70001,.36005,.02002,.00995,.03003,.01996,.04999,.02997,.21002,.15002,.43005,.32001,.65002,.53998,.07001,.07001,.15002,.16003,.22998,.27002,.06,.07001,.12,.15002,.17999,.22998,.01001,.01001,.02002,.03003,.03003,.04004l.02002,.01996c.10999,.17004,.22998,.35004,.32001,.52002,.01996,.03003,.02997,.07001,.04999,.10004,0,0,.01996,.04999,.04999,.09998,.03998,.09998,.09998,.21997,.09998,.25,.05005,.10999,.10004,.22998,.14001,.37,.03003,.12,.06,.27002,.08002,.41998,.02997,.66003,.03998,1.52002,.03998,2.38Z"/>
    <path class="cls-3" d="M42.37,20.46002l-.02002,4.04999c0,1.87-1.06,3.48999-2.60999,4.29999-.65997,.34003-1.41998,.53998-2.21997,.53998h-2.21002c-2.66998,0-4.84003-2.16998-4.84003-4.83997v-7.69c0-2.03998,1.28003-3.78998,3.08002-4.48999,.54004-.22003,1.14001-.34003,1.76001-.34003h5.38v3.33002h-5.38c-.83002,0-1.51001,.66998-1.51001,1.5v7.69c0,.46997,.22003,.89001,.56,1.15997,.26001,.21002,.59003,.34003,.95001,.34003h2.21002c.82996,0,1.5-.66998,1.5-1.5v-1.22998h-1.55005v-2.82001h4.90002Z"/>
    <path class="cls-3" d="M27.31,11.91998V29.34998l-.07001-.01996c-.65997-.12-1.27002-.33002-1.79999-.63-.03998-.02002-.07001-.04999-.10999-.07001-.27002-.16998-.52002-.35999-.73004-.58002-.00995,0-.01996-.01001-.02997-.01996-.19-.20001-.35999-.42004-.5-.66003-.09003-.15002-.16998-.31-.22998-.46997-.06-.15002-.11005-.30005-.15002-.46002-.03003-.10999-.04999-.22998-.07001-.34003V11.91998h3.69Z"/>
    <path class="cls-3" d="M21.06,23.90997c-.01001-.10999-.02002-.20996-.02997-.31995-.02002-.19-.05005-.37006-.09003-.54004-.02002-.08002-.03003-.15997-.06-.22998v-.01001c-.03998-.15997-.09998-.32001-.16003-.46002-.04999-.12-.09998-.22998-.14996-.32996-.03003-.05005-.06-.11005-.09003-.16003-.08997-.14996-.17999-.28998-.27997-.40997-.27002-.35004-.60004-.63-.96002-.85004-.13-.07996-.27002-.14996-.40997-.21997-.21002-.09003-.42004-.16998-.64001-.22998v-.11005c1.28998-.52997,2.09003-2.19,2.09003-3.75,0-.12,0-.23999-.01001-.35999-.01001-.19-.03003-.37-.06-.53998-.05005-.32001-.14001-.60999-.24005-.87-.08997-.21002-.18994-.40002-.29999-.57001l-.12-.17999c-.29999-.39001-.66998-.71002-1.09998-.96002-.04004-.01001-.07001-.02997-.10004-.04999-.59998-.33002-1.31995-.53003-2.12-.65002-.32001-.04999-.65997-.07996-1.01001-.09998-.20996-.01001-.41998-.02002-.63995-.02002h-5.60004v12.84003c0,.29999,.02002,.58997,.08002,.87,.01001,.06,.03003,.13,.03998,.19,.01001,.02997,.01001,.06,.02002,.07996,.44,1.69,1.83002,2.99005,3.56,3.30005h.01001c.17999,.03998,.38,.06,.57001,.07001,.08002,.00995,.14996,.00995,.22998,.00995h1.38c.08002,0,.16003,0,.23999-.00995,1.04004-.02002,2-.19,2.84003-.51001,.35999-.14001,.67999-.29999,.98999-.48999,.73999-.47003,1.32001-1.10004,1.69-1.91003,.02002-.03998,.02997-.07001,.03998-.10999,.10004-.21002,.17004-.42999,.23004-.66998,.10999-.43005,.16998-.90002,.16998-1.42004,0-.10999-.01001-.21997-.01001-.32001Zm-6.77997-8.88995c.35999,0,.67999,.01996,.95996,.07001,.39001,.07996,.71002,.19995,.95001,.39996,.04999,.02002,.09003,.06,.13,.10004,.27997,.26996,.42999,.65997,.44,1.17999,.01001,.02997,.01001,.07001,.01001,.09998v.03003c0,.08997-.01001,.19-.02002,.26996-.03998,.45001-.20001,.82001-.47998,1.11005-.04004,.03998-.07001,.06995-.11005,.09998-.08997,.08002-.19,.15002-.31,.21002-.08997,.06-.19,.10999-.29999,.14996-.14996,.06-.32001,.10004-.48999,.13-.09003,.02002-.19,.03003-.29999,.03998-.16003,.02002-.33002,.03003-.51001,.03003h-1.67999v-3.91998h1.71002Zm2.96997,10.21997c-.34998,.58002-.98999,.91998-1.91998,1.04004-.09003,.00995-.20001,.01996-.29999,.01996-.14001,.01001-.28003,.02002-.43005,.02002h-.64996c-.69,0-1.27002-.51001-1.35999-1.17999-.02002-.07001-.02002-.13-.02002-.20001v-3.09998h2.01001c.26001,0,.51001,.00995,.72998,.02997,.78003,.08002,1.34998,.28998,1.72998,.66003,.34003,.33997,.51001,.81995,.51001,1.44995,0,.5-.09998,.92004-.29999,1.26001Z"/>
    <path class="cls-3" d="M27.31,11.91998V29.34998l-.07001-.01996c-.65997-.12-1.27002-.33002-1.79999-.63-.03998-.02002-.07001-.04999-.10999-.07001-.27002-.16998-.52002-.35999-.73004-.58002-.00995,0-.01996-.01001-.02997-.01996-.19-.20001-.35999-.42004-.5-.66003-.09003-.15002-.16998-.31-.22998-.46997-.06-.15002-.11005-.30005-.15002-.46002-.03003-.10999-.04999-.22998-.07001-.34003V11.91998h3.69Z"/>
    <polygon class="cls-3" points="64.48006 23.11056 71.22871 23.11056 71.22871 25.91123 64.48006 25.91123 64.48006 23.11056 64.48006 23.11056"/>
  </g>
  <path class="cls-1" d="M10.34003,1.38l-3.83002-.31c-.01001,0-.02002,.01001-.03003,.01001-.06,.01996-.14996,.03998-.26996,.07001-.28003,.04999-.66003,.13-1.09003,.31995-.19,.09003-.38,.20001-.58002,.33002-.20996,.14001-.42999,.31-.63995,.53003-.14001,.13-.25,.26001-.36005,.38995-.01996,.03003-.22998,.26001-.40997,.61005-.07001,.13995-.14001,.28998-.19,.41998-.14001,.34998-.21002,.65997-.27002,.89001-.01001,.04999-.01996,.10999-.03998,.14996,.5-.32996,.95001-.63,1.27002-.82001,1.17999-.71997,1.81-1.25995,2.03998-.51996,.10999,.33002,.34998,.95996,.63,1.60999,.04999-.04999,.09998-.09998,.15997-.14001,.13-.08997,.28003-.14996,.47003-.17999,.03998-.01001,.08002-.02002,.13-.02002,.13-.00995,.25-.01996,.37-.02997,.35999-.01001,.65997,.02997,.90997,.12,.29999,.09998,.52002,.29999,.66003,.63,.01996,.06,.03998,.15997,.04999,.27997,.77002-.70996,1.5-1.46997,1.64996-1.56,.31006-.17999-.62994-2.77997-.62994-2.77997Zm1.75,5.20001c.08997-1.17004,.26996-1.17004-.53003-1.06-.79999,.10999-.39001,1.21997-1.25,1.20996-.16998,0-.38,.10004-.59998,.27002,.19,.27002,.47998,.51001,.94995,.65002,.09003,.02997,.41003,.04999,.85004,.06995h.20996c.12006,0,.23004,.01001,.36005,.01001h.10999c-.03998-.25-.14001-.58997-.09998-1.14996Zm-6.33002,3.57001c-.33002,1.15997-.59003,2.07996-1.70001,2.06-1.10999-.02002-1.16998,.34998-1.07001,1.26996,.10999,.92999,2.09003,.23004,2.13,1.27002,.03998,1.04999-.02002,1.10999-.95001,1.52002-.51001,.22998-1.10999,.57996-1.58997,.64996v7.82001c.44-.83002,1.16998-1.35999,1.71997-2.13,.60004-.82996,1.45001-.62,1.94-.31V9.19c-.19,.09003-.29999,.34998-.47998,.96002ZM22.44,2.52002c.56-1.47003-1.32001-.67004-1.65997-1.47003H12.5c-.28003,.23999-.38,.56-.14001,1.10004,.41003,.92999,.60004,.75,1.22003,.44995,0,0,1.04999-.52997,1.37-.94995,.32001-.43005,1.02997,.94,.14996,1.83997-.88,.91003-.56995,.85004,.5,2.84003,.28003,.51001,.46002,.97998,.56,1.39996h.95001c.20001,0,.37,0,.53003,.01001h.21997c.12,.01001,.23004,.01001,.35004,.01001,.56,0,1.07001-.03998,1.5-.29999,.03998-.03003,.07996-.06,.13-.09003,.08997-.06,.16998-.14001,.25-.22998,.34998-.39001,.40997-.81,.47998-1.22003,.02002-.12994,.04999-.26996,.08002-.38995,.01996-.05005,.02997-.10004,.04999-.15002,.02997-.04999,.04999-.09998,.08002-.15002,.03998-.06995,.09998-.14996,.17999-.20996h.00995l.04004-.04004c.13-.07996,.28998-.14996,.46997-.19995,.14001-.03003,.30005-.06,.46002-.07001,.07001,0,.14001-.01001,.21002-.01001,.19,0,.38,.02002,.54999,.04999,.16998,.04004,.32001,.09003,.44,.17999-.60999-.63995-1.21002-1.04999-.70001-2.39996Zm4.77002,30.06c-.01001-.01001-.02002-.02002-.04004-.03003-.01996-.01996-.04999-.02997-.07996-.04999-.09003-.03003-.23004-.09998-.38-.15997-.13-.05005-.42004-.13-.76001-.27002l-.27002-.12c-.02002-.01001-.03998-.02002-.04999-.03003-.38-.17999-.79999-.42999-1.16998-.77997-.13-.13-.26001-.27002-.37-.42999-.12006-.16003-.22003-.34003-.31-.54004-.06006-.12-.11005-.26001-.16003-.39996v3.13c-.12,.44-.12,.69-.31,.88995-.06,.06-.14001,.12-.23999,.17999-.15002,.09003-.34003,.17004-.62,.26001h-3.98004c.25,.33002,.38,.72003,.49005,1.25,.21997,1.11005,2.76996-.26001,3.42999,.80005,.20996,.33997,.32001,.94995,.39001,1.62,.15997,0,.32996-.01001,.48999-.01001,.01001,0,.01996-.01001,.02997-.01001,.23004-.03003,.45001-.06,.66003-.10999,.07001-.02002,.13995-.03003,.20996-.05005,.02002,0,.04004-.00995,.04999-.00995,.16003-.05005,.30005-.09003,.44-.14001,.19-.07001,.37006-.14001,.53003-.22998l.12-.06c.40997-.22003,.75-.5,1.02002-.82001,.07001-.08002,.13-.16003,.19-.24005l.06-.08997c.01001-.02002,.01996-.03003,.02997-.03998,.13-.22003,.23999-.44,.33002-.68005,.01001-.01996,.02002-.03998,.02002-.04999,.12-.32996,.19995-.67999,.25-1.06l.02997-.20996c.04004-.40002,.06-.83002,.06-1.29004,0-.08002-.02997-.15997-.08997-.21997Zm.06-25.42999h.02997v-.10004c0-.85999-.01001-1.71997-.03998-2.38-.02002-.14996-.04999-.29999-.08002-.41998-.03998-.14001-.08997-.26001-.14001-.37,0-.03003-.06-.15002-.09998-.25-.03003-.04999-.04999-.09998-.04999-.09998-.02002-.03003-.03003-.07001-.04999-.10004-.09003-.16998-.21002-.34998-.32001-.52002l-.02002-.01996c-.01001-.01001-.02002-.03003-.03003-.04004-.06-.07996-.12-.15997-.17999-.22998-.07996-.10999-.15997-.20001-.22998-.27002-.21997-.21997-.44-.38995-.65002-.53998-.01996-.01001-.02997-.02002-.04999-.02997-.35999-.01001-.57001-.02002-.57001-.02002,0,0-.71997,2.08002-.66998,2.75s-.08002,1.45996-.71997,.70001c.17999,.31,.21997,.69995,.22998,1.09998,0,.31-.02002,.62-.02002,.89001v.57001l.01001,.85999v.41998h1.37l.72003,.01001h1.58997v-.22998c-.25-.78003-.51996-1.54999-.02997-1.67999ZM5.79,37.85c.45-.1,.9-.28,1.08-.43,.44-.37-.55-.26-.72-1.06s-.42-.69,.33-1.1c.74-.42,1.23-.17,1.53,.27s1.77,.52,2.35-.57c.16-.31,.32-.54,.48-.73h-3.06c-.4,.01-.67,.01-.98-.17-.35-.21-.49-.52-.54-.91-.03-.22-.03-.46-.03-.72v-.19c0-.17,.01-.34,.01-.41v-7.38c-.32,.06-.62-.43-1.03-.78-.61-.5-.61-.13-1,.54-.38,.67,1.17,.14,1.08,1.86s-1.74,1.14-2.24,1.13c-.49-.01,.04,1.72,.14,2.52,.05,.37-.23,.6-.61,.74v3.48c0,.19,.02,.38,.07,.58,.1,.42,.3,.86,.56,1.28,.16,.25,.35,.5,.56,.73,.25-.09,.46-.18,.6-.27,.56-.38,.6,.48,.41,1.15l1.01,.44Zm9.66,.05c-.05-.1-.08-.22-.1-.39-.1-.87-2.7,.01-2.75-.67-.03-.47-.03-1.82-.2-2.61h2.51c.27,.71,.68,1.38,1.15,1.75,.79,.63,2.7-.01,2.32,.84-.23,.52-.46,.87-.79,1.08h-2.14Z"/>
</svg>